# xmcd
#
# Track frame offsets:
#	150
#	39002
#	85246
#	119923
#	130230
#	146144
#	178286
#	187723
#	224559
#
# Disc length: 3095 seconds
#
# Revision: 0
# Processed by: cddbd v1.5.1PL0 Copyright (c) Steve Scherf et al.
# Submitted via: EasyCDDAExtractor 5.0.4.1
#
DISCID=860c1509
DTITLE=Rainbow - Dangerous Express - CD 2
DYEAR=1980
DGENRE=Hard Rock
TTITLE0=Don Airey Solo, Lost In Hollywood, Ritchie Blackmore Solo
TTITLE1=Difficult To Cure, Don Airey Solo
TTITLE2=Cozy Powell Solo, 1812 Festival Overture
TTITLE3=Lost In Hollywood (Reprise)
TTITLE4=Lazy
TTITLE5=Man On The Silver Mountain, Blues
TTITLE6=Will You Still Love Me Tomorrow
TTITLE7=Long Live Rock 'n' Roll
TTITLE8=Over The Rainbow
EXTD=segurarte@hotmail.com\n
EXTT0=
EXTT1=
EXTT2=
EXTT3=
EXTT4=
EXTT5=
EXTT6=
EXTT7=
EXTT8=
PLAYORDER=
